PathFileType	4	(X/Y/Z)	E:\Qualisys_Data\Carbon_Farble_Plate\Data\Amateur_Runner\S1\T2\S1T2V22_c3d.trc
DataRate	CameraRate	NumFrames	NumMarkers	Units	OrigDataRate	OrigDataStartFrame	OrigNumFrames
200.000000	200.000000	4	39	mm	200.000000	228	304
Frame#	Time	LSHO			RSHO			LICST			RICST			LASIS			LHEEL			RASIS			LTROC			RTROC			SACR			LTH1			LSK4			LTH2			LTH3			RHM5			LSK2			LTH4			RTH1			LTOE			RTH2			RTH3			RTH4			LLEP			RLEP			LSK1			LSK3			RSK1			LHM5			RSK2			LFT1			RSK3			RSK4			LLME			RLME			RTOE			RHEEL			RFT1			RFT2			LFT2			
		X1	Y1	Z1	X2	Y2	Z2	X3	Y3	Z3	X4	Y4	Z4	X5	Y5	Z5	X6	Y6	Z6	X7	Y7	Z7	X8	Y8	Z8	X9	Y9	Z9	X10	Y10	Z10	X11	Y11	Z11	X12	Y12	Z12	X13	Y13	Z13	X14	Y14	Z14	X15	Y15	Z15	X16	Y16	Z16	X17	Y17	Z17	X18	Y18	Z18	X19	Y19	Z19	X20	Y20	Z20	X21	Y21	Z21	X22	Y22	Z22	X23	Y23	Z23	X24	Y24	Z24	X25	Y25	Z25	X26	Y26	Z26	X27	Y27	Z27	X28	Y28	Z28	X29	Y29	Z29	X30	Y30	Z30	X31	Y31	Z31	X32	Y32	Z32	X33	Y33	Z33	X34	Y34	Z34	X35	Y35	Z35	X36	Y36	Z36	X37	Y37	Z37	X38	Y38	Z38	X39	Y39	Z39	

229	1.14	1097.902221679688	1506.24853515625	-612.7027587890625	1169.331909179688	1512.638305664062	-297.6429748535156	1105.085571289062	1046.206298828125	-562.0590209960938	1124.049438476562	1058.745849609375	-265.4802551269531	1149.957275390625	1007.871154785156	-537.7501831054688	1264.338256835938	73.3138656616211	-453.5281066894531	1158.261596679688	1007.490417480469	-276.9187622070312	1051.6494140625	922.2858276367188	-580.3521728515625	1039.320556640625	932.1370239257812	-235.2679595947266	995.7222290039062	1069.846923828125	-405.0818786621094	1213.768432617188	800.9071044921875	-556.9515991210938	1226.474365234375	243.8124542236328	-496.4632263183594	1140.104125976562	769.9553833007812	-589.2201538085938	1244.615966796875	702.1342163085938	-541.3118286132812	575.131103515625	217.8934936523438	-284.2357177734375	1211.16552734375	339.4974365234375	-536.5687866210938	1165.263427734375	675.5670166015625	-563.85693359375	1130.852905273438	776.5504150390625	-277.357666015625	1501.763061523438	169.9664154052734	-476.9382934570312	1061.886108398438	789.35546875	-242.6668701171875	1106.950927734375	678.777099609375	-287.517822265625	1033.634765625	694.7716674804688	-257.720458984375	1249.462280273438	553.3219604492188	-521.5783081054688	998.582763671875	527.0015258789062	-297.5769348144531	1295.42724609375	348.7165832519531	-529.7144775390625	1303.054321289062	248.1779937744141	-523.0460205078125	829.4223022460938	440.512939453125	-278.4655456542969	1453.671630859375	105.6341857910156	-534.8632202148438	794.000732421875	513.4686279296875	-289.446533203125	1287.502197265625	54.63958740234375	-430.1299133300781	739.8544921875	395.0270690917969	-288.3577575683594	706.1090698242188	466.8127136230469	-309.5605163574219	1301.789306640625	119.3561782836914	-512.7120971679688	608.6286010742188	364.6180114746094	-286.2801208496094	613.1942749023438	172.1290435791016	-361.9102478027344	556.5966186523438	415.6837463378906	-325.19775390625	531.7022705078125	399.4010314941406	-359.1840209960938	527.9511108398438	401.9688110351562	-302.8022766113281	1283.65576171875	44.16839599609375	-483.0238342285156
230	1.145	1118.259033203125	1502.32763671875	-613.8486938476562	1188.424682617188	1509.912841796875	-298.8152770996094	1122.625610351562	1044.07275390625	-562.297119140625	1143.60498046875	1055.164672851562	-266.6606750488281	1167.590942382812	1005.758422851562	-538.7140502929688	1274.329956054688	69.52373504638672	-451.76904296875	1177.330932617188	1004.240356445312	-277.5227355957031	1069.390014648438	919.8493041992188	-580.09814453125	1059.536987304688	927.6155395507812	-235.1313171386719	1014.314880371094	1066.109252929688	-404.2609252929688	1232.931762695312	799.6953125	-559.5222778320312	1239.123291015625	240.8258514404297	-495.7191162109375	1158.42578125	768.2930297851562	-588.278076171875	1263.714477539062	701.0625610351562	-542.1712036132812	595.64013671875	223.2320709228516	-284.4320373535156	1225.182739257812	336.8628540039062	-536.4052734375	1184.409423828125	674.2404174804688	-562.8968505859375	1152.952514648438	773.3806762695312	-277.5088500976562	1511.426025390625	164.6058349609375	-478.1591186523438	1083.716796875	785.5363159179688	-242.5562896728516	1130.689331054688	675.3081665039062	-287.1805114746094	1057.116821289062	690.2153930664062	-257.8473815917969	1266.513916015625	550.197265625	-521.826171875	1025.158569335938	522.1596069335938	-297.7288513183594	1309.577758789062	344.0840148925781	-529.3212280273438	1315.517333984375	243.3327026367188	-521.731201171875	854.4608764648438	438.7875061035156	-278.7010803222656	1462.63037109375	99.39085388183594	-534.3291015625	821.1683959960938	513.0032958984375	-289.6465454101562	1296.89501953125	50.97083282470703	-428.023193359375	764.037109375	395.811279296875	-288.416748046875	732.16455078125	468.1795959472656	-309.7891540527344	1311.244873046875	114.3676300048828	-511.2116394042969	632.3784790039062	369.6122131347656	-286.7806091308594	632.7355346679688	176.5067596435547	-361.920654296875	581.6697998046875	421.5033264160156	-325.1571044921875	556.2098388671875	405.6942749023438	-359.0366821289062	552.8965454101562	408.4088439941406	-302.884521484375	1293.160522460938	39.47844314575195	-479.9465637207031
231	1.15	1138.412109375	1498.198852539062	-615.4066162109375	1207.737548828125	1506.888427734375	-300.2477722167969	1140.1123046875	1041.686889648438	-562.6287841796875	1162.506591796875	1051.499755859375	-267.019775390625	1186.098388671875	1003.730651855469	-539.5457153320312	1281.885375976562	68.9561767578125	-449.9703063964844	1196.426635742188	1000.530090332031	-278.1422729492188	1087.130004882812	917.8394165039062	-580.3111572265625	1079.3212890625	923.1124877929688	-234.5565032958984	1033.052124023438	1062.674682617188	-403.5635070800781	1252.340209960938	797.9421997070312	-561.3384399414062	1250.362548828125	237.5434265136719	-494.4366760253906	1176.610595703125	766.2700805664062	-587.2190551757812	1283.237915039062	699.9955444335938	-542.9906005859375	617.6281127929688	228.5953063964844	-284.0758972167969	1238.66357421875	333.8520812988281	-536.0119018554688	1203.371704101562	672.8125610351562	-562.0072021484375	1174.78857421875	770.1970825195312	-277.6477966308594	1520.441650390625	156.9785766601562	-478.2835083007812	1104.9833984375	781.0238647460938	-243.3090515136719	1154.338745117188	671.5738525390625	-286.3372497558594	1079.961059570312	685.2930297851562	-258.1649780273438	1283.681884765625	546.7643432617188	-522.0280151367188	1051.837646484375	517.4025268554688	-296.9481811523438	1323.413696289062	339.0425720214844	-528.753173828125	1326.982299804688	238.3133697509766	-521.01318359375	880.40185546875	437.0868835449219	-278.6127319335938	1470.579345703125	92.30902862548828	-534.0369873046875	848.8383178710938	511.9427795410156	-289.9852905273438	1304.350219726562	49.46572113037109	-426.4530029296875	788.7919921875	396.2267456054688	-288.6578369140625	758.8560791015625	469.4052124023438	-310.1360778808594	1320.0703125	110.4316482543945	-510.2232055664062	656.85986328125	374.0781555175781	-286.7004089355469	653.8296508789062	180.7925415039062	-361.5104064941406	607.1121215820312	426.8279113769531	-325.491455078125	581.5753784179688	411.68505859375	-359.2924194335938	578.3358154296875	414.0777282714844	-302.8190002441406	1299.459228515625	39.31908798217773	-479.0391540527344
232	1.155	1159.040405273438	1493.776489257812	-616.8941040039062	1226.614624023438	1503.69775390625	-301.3187561035156	1157.353393554688	1038.802978515625	-563.12841796875	1181.630981445312	1047.427368164062	-266.764404296875	1204.351440429688	1001.135620117188	-540.5716552734375	1287.68310546875	70.57791137695312	-449.2497863769531	1215.54638671875	996.906005859375	-278.5691528320312	1104.938598632812	915.11328125	-580.1861572265625	1098.716674804688	918.3184814453124	-234.8646545410156	1051.224731445312	1058.876953125	-403.3329772949219	1271.39453125	796.0274658203125	-563.3375244140625	1261.685791015625	234.0643920898438	-493.0764770507812	1194.923583984375	764.4188842773438	-586.317138671875	1301.774536132812	697.8922729492188	-547.6433715820312	640.0072021484375	233.1889801025391	-283.7847595214844	1251.819458007812	330.1778869628906	-534.5458984375	1222.558349609375	670.6560668945312	-560.6436157226562	1196.231201171875	767.1691284179688	-277.2940063476562	1529.601928710938	146.1744689941406	-477.7268371582031	1126.22509765625	776.68798828125	-243.5348968505859	1178.103881835938	668.06884765625	-285.9317016601562	1103.260009765625	680.3642578125	-258.3404846191406	1300.747924804688	543.370361328125	-522.3949584960938	1078.786499023438	512.0931396484375	-296.7825622558594	1336.725952148438	333.9385986328125	-528.0120849609375	1337.875122070312	233.2388000488281	-520.37255859375	906.1881713867188	435.6951599121094	-278.4146728515625	1476.665649414062	84.51970672607422	-533.2717895507812	876.4335327148438	511.3244934082031	-290.1614685058594	1308.401123046875	49.32128143310547	-425.2998657226562	813.7858276367188	396.5009765625	-288.7148132324219	785.7551879882812	470.4990844726562	-310.4241027832031	1327.980346679688	107.082145690918	-509.4410095214844	682.1624755859375	378.0695190429688	-287.0958251953125	675.7669067382812	184.80859375	-361.0068664550781	633.1901245117188	431.5811462402344	-326.1137084960938	607.3804321289062	416.7644348144531	-359.9164123535156	603.749755859375	419.4554748535156	-302.784423828125	1303.023559570312	39.77229309082031	-478.4005737304688
